<svg width="26" height="25" viewBox="0 0 26 25" fill="none" xmlns="http://www.w3.org/2000/svg">
<path fill-rule="evenodd" clip-rule="evenodd" d="M4.11554 0.50222C4.18847 0.532651 4.24644 0.590625 4.27687 0.66355L5.06023 2.5408L7.08768 2.70572C7.25282 2.71915 7.3758 2.86392 7.36237 3.02906C7.35596 3.10782 7.31874 3.18087 7.25879 3.23234L5.71549 4.55747L6.18516 6.53665C6.22341 6.69785 6.12374 6.85955 5.96253 6.89781C5.88565 6.91605 5.80467 6.90323 5.73718 6.86212L4.00001 5.80383L2.26284 6.86212C2.12134 6.94832 1.93675 6.90349 1.85055 6.76199C1.80944 6.69451 1.79662 6.61353 1.81486 6.53665L2.28453 4.55747L0.741231 3.23234C0.615525 3.12441 0.601119 2.93501 0.709053 2.8093C0.76053 2.74935 0.833581 2.71213 0.912341 2.70572L2.93979 2.5408L3.72315 0.66355C3.78695 0.510644 3.96264 0.438414 4.11554 0.50222ZM4.11554 9.25222C4.18847 9.28265 4.24644 9.34063 4.27687 9.41355L5.06023 11.2908L7.08768 11.4557C7.25282 11.4692 7.3758 11.6139 7.36237 11.7791C7.35596 11.8578 7.31874 11.9309 7.25879 11.9823L5.71549 13.3075L6.18516 15.2866C6.22341 15.4479 6.12374 15.6096 5.96253 15.6478C5.88565 15.6661 5.80467 15.6532 5.73718 15.6121L4.00001 14.5538L2.26284 15.6121C2.12134 15.6983 1.93675 15.6535 1.85055 15.512C1.80944 15.4445 1.79662 15.3635 1.81486 15.2866L2.28453 13.3075L0.741231 11.9823C0.615525 11.8744 0.601119 11.685 0.709053 11.5593C0.76053 11.4993 0.833581 11.4621 0.912341 11.4557L2.93979 11.2908L3.72315 9.41355C3.78695 9.26064 3.96264 9.18841 4.11554 9.25222ZM4.27687 18.1635C4.24644 18.0906 4.18847 18.0327 4.11554 18.0022C3.96264 17.9384 3.78695 18.0106 3.72315 18.1635L2.93979 20.0408L0.912341 20.2057C0.833581 20.2121 0.76053 20.2493 0.709053 20.3093C0.601119 20.435 0.615525 20.6244 0.741231 20.7323L2.28453 22.0575L1.81486 24.0366C1.79662 24.1135 1.80944 24.1945 1.85055 24.262C1.93675 24.4035 2.12134 24.4483 2.26284 24.3621L4.00001 23.3038L5.73718 24.3621C5.80467 24.4032 5.88565 24.4161 5.96253 24.3978C6.12374 24.3596 6.22341 24.1979 6.18516 24.0366L5.71549 22.0575L7.25879 20.7323C7.31874 20.6809 7.35596 20.6078 7.36237 20.5291C7.3758 20.3639 7.25282 20.2192 7.08768 20.2057L5.06023 20.0408L4.27687 18.1635ZM24 20.7501H10.5L10.3982 20.7569C10.0322 20.8066 9.75001 21.1204 9.75001 21.5001C9.75001 21.9143 10.0858 22.2501 10.5 22.2501H24L24.1018 22.2432C24.4679 22.1936 24.75 21.8798 24.75 21.5001C24.75 21.0859 24.4142 20.7501 24 20.7501ZM24 12.0001H10.5L10.3982 12.0069C10.0322 12.0566 9.75001 12.3704 9.75001 12.7501C9.75001 13.1643 10.0858 13.5001 10.5 13.5001H24L24.1018 13.4932C24.4679 13.4436 24.75 13.1298 24.75 12.7501C24.75 12.3359 24.4142 12.0001 24 12.0001ZM24 3.25008H10.5L10.3982 3.25692C10.0322 3.30658 9.75001 3.62038 9.75001 4.00008C9.75001 4.41429 10.0858 4.75008 10.5 4.75008H24L24.1018 4.74323C24.4679 4.69357 24.75 4.37977 24.75 4.00008C24.75 3.58586 24.4142 3.25008 24 3.25008Z" fill="#F9F9F9"/>
</svg>
